<svg width="672" height="442" xmlns="http://www.w3.org/2000/svg">
 <style>.st0{display:none;} .st1{display:inline;} .st2{fill:#FFFFFF;} .st3{fill:none;stroke:#9882CE;stroke-width:4;stroke-miterlimit:10;} .st4{fill:#FFFFFF;stroke:#404040;stroke-width:4;stroke-linecap:round;stroke-linejoin:round;stroke-miterlimit:10;} .st5{fill:#FFFFFF;stroke:#404040;stroke-width:4;stroke-miterlimit:10;} .st6{fill:#B3E3FF;stroke:#404040;stroke-width:4;stroke-miterlimit:10;} .st7{fill:#B18BE8;stroke:#404040;stroke-width:4;stroke-miterlimit:10;} .st8{fill:#FFFFFF;stroke:#404040;stroke-width:6;stroke-miterlimit:10;} .st9{fill:#B3E3FF;stroke:#404040;stroke-width:6;stroke-miterlimit:10;} .st10{fill:#404040;} .st11{fill:none;stroke:#404040;stroke-width:4;stroke-linecap:round;stroke-linejoin:round;stroke-miterlimit:10;} .st12{fill:#B18BE8;stroke:#404040;stroke-width:4;stroke-linecap:round;stroke-linejoin:round;stroke-miterlimit:10;} .st13{fill:#444444;} .st14{fill:none;stroke:#404040;stroke-width:4;stroke-miterlimit:10;} .st15{fill:#4ED1A1;stroke:#404040;stroke-width:4;stroke-miterlimit:10;} .st16{fill:none;stroke:#CCCCCC;stroke-width:7;stroke-linecap:round;stroke-linejoin:round;stroke-miterlimit:10;} .st17{fill:#FFFFFF;stroke:#CCCCCC;stroke-width:7;stroke-linecap:round;stroke-linejoin:round;stroke-miterlimit:10;} .st18{fill:none;stroke:#404040;stroke-width:7;stroke-miterlimit:10;} .st19{fill:#B3E3FF;stroke:#404040;stroke-width:7;stroke-miterlimit:10;} .st20{fill:none;stroke:#CCCCCC;stroke-width:8;stroke-linecap:round;stroke-miterlimit:10;} .st21{fill:none;stroke:#404040;stroke-width:8;stroke-linecap:round;stroke-miterlimit:10;} .st22{fill:#FFFFFF;stroke:#404040;stroke-width:4;stroke-linejoin:round;stroke-miterlimit:10;} .st23{fill:#B3E3FF;stroke:#404040;stroke-width:4;stroke-linejoin:round;stroke-miterlimit:10;} .st24{fill:none;stroke:#CCCCCC;stroke-linecap:round;stroke-linejoin:round;stroke-miterlimit:10;} .st25{fill:#999999;} .st26{fill:#4ED1A1;stroke:#404040;stroke-width:4;stroke-linecap:round;stroke-linejoin:round;stroke-miterlimit:10;} .st27{fill:#4CD3D6;stroke:#404040;stroke-width:4;stroke-linejoin:round;stroke-miterlimit:10;} .st28{fill:none;stroke:#59AFE1;stroke-width:4;stroke-miterlimit:10;} .st29{fill:#59AFE1;stroke:#404040;stroke-width:4;stroke-linejoin:round;stroke-miterlimit:10;} .st30{fill:none;stroke:#404040;stroke-width:8;stroke-linecap:round;stroke-linejoin:round;stroke-miterlimit:10;stroke-dasharray:0,30;} .st31{fill:#FFFFFF;stroke:#59AFE1;stroke-width:4;stroke-miterlimit:10;} .st32{fill:#FC8363;stroke:#404040;stroke-width:4;stroke-linecap:round;stroke-linejoin:round;stroke-miterlimit:10;} .st33{fill:#CCCCCC;stroke:#404040;stroke-width:4;stroke-miterlimit:10;} .st34{fill:#FFFFFF;stroke:#6693ED;stroke-width:4;stroke-miterlimit:10;} .st35{fill:none;stroke:#A97CDD;stroke-width:4;stroke-linecap:round;stroke-linejoin:round;stroke-miterlimit:10;} .st36{fill:none;stroke:#B3E3FF;stroke-width:4;stroke-linecap:round;stroke-linejoin:round;stroke-miterlimit:10;} .st37{fill:none;stroke:#4ED1A1;stroke-width:4;stroke-linecap:round;stroke-miterlimit:10;} .st38{fill:none;stroke:#4ED1A1;stroke-width:4;stroke-linecap:round;stroke-linejoin:round;stroke-miterlimit:10;} .st39{fill:#E24B88;stroke:#404040;stroke-width:4;stroke-linecap:round;stroke-linejoin:round;stroke-miterlimit:10;} .st40{fill:none;stroke:#DEEFF8;stroke-width:4;stroke-miterlimit:10;} .st41{fill:none;stroke:#CCCCCC;stroke-width:4;stroke-linecap:round;stroke-linejoin:round;} .st42{fill:none;stroke:#CCCCCC;stroke-width:4;stroke-linecap:round;stroke-linejoin:round;stroke-dasharray:0,14.3051;} .st43{fill:none;stroke:#CCCCCC;stroke-width:4;stroke-linecap:round;stroke-linejoin:round;stroke-dasharray:0,14.1689;} .st44{fill:none;stroke:#CCCCCC;stroke-width:4;stroke-linecap:round;stroke-linejoin:round;stroke-dasharray:0,13.9788;} .st45{fill:none;stroke:#CCCCCC;stroke-width:4;stroke-linecap:round;stroke-linejoin:round;stroke-dasharray:0,14.7877;} .st46{fill:none;stroke:#CCCCCC;stroke-width:4;stroke-linecap:round;stroke-linejoin:round;stroke-dasharray:0,14.9632;} .st47{fill:#B3E3FF;stroke:#404040;stroke-width:4;stroke-linecap:round;stroke-linejoin:round;stroke-miterlimit:10;} .st48{fill:none;stroke:#CCCCCC;stroke-width:4;stroke-linecap:round;stroke-linejoin:round;stroke-dasharray:0,12.543;} .st49{fill:none;stroke:#CCCCCC;stroke-width:4;stroke-linecap:round;stroke-linejoin:round;stroke-dasharray:0,13.6844;} .st50{fill:none;stroke:#CCCCCC;stroke-width:4;stroke-linecap:round;stroke-linejoin:round;stroke-dasharray:0,13.7717;} .st51{fill:none;stroke:#CCCCCC;stroke-width:4;stroke-linecap:round;stroke-linejoin:round;stroke-dasharray:0,13.6492;} .st52{fill:none;stroke:#CCCCCC;stroke-width:4;stroke-linecap:round;stroke-linejoin:round;stroke-dasharray:0,13.907;} .st53{fill:#4CD3D6;stroke:#404040;stroke-width:4;stroke-linecap:round;stroke-linejoin:round;stroke-miterlimit:10;} .st54{fill:none;stroke:#CCCCCC;stroke-width:4;stroke-linecap:round;stroke-linejoin:round;stroke-dasharray:0,14.9858;} .st55{fill:none;stroke:#CCCCCC;stroke-width:4;stroke-linecap:round;stroke-linejoin:round;stroke-dasharray:0,14.0118;} .st56{fill:none;stroke:#CCCCCC;stroke-width:4;stroke-linecap:round;stroke-linejoin:round;stroke-dasharray:0,14.1243;} .st57{fill:none;} .st58{fill:#FFFFFF;stroke:#404040;stroke-width:7;stroke-linecap:round;stroke-linejoin:round;stroke-miterlimit:10;} .st59{fill:#59AFE1;stroke:#404040;stroke-width:7;stroke-linejoin:round;stroke-miterlimit:10;} .st60{fill:#E24B88;stroke:#404040;stroke-width:7;stroke-linecap:round;stroke-linejoin:round;stroke-miterlimit:10;} .st61{fill:none;stroke:#404040;stroke-width:7;stroke-linecap:round;stroke-linejoin:round;stroke-miterlimit:10;} .st62{fill:none;stroke:#CCCCCC;stroke-width:4;stroke-linecap:round;stroke-linejoin:round;stroke-miterlimit:10;} .st63{fill:#FFFFFF;stroke:#CCCCCC;stroke-width:4;stroke-linecap:round;stroke-linejoin:round;stroke-miterlimit:10;} .st64{fill:#F5F5F5;} .st65{fill:#3873AE;} .st66{fill:#75706C;} .st67{fill:none;stroke:#B3E3FF;stroke-width:4;stroke-miterlimit:10;} .st68{fill:#6F6F6F;} .st69{fill:none;stroke:#6F6F6F;stroke-width:2;stroke-miterlimit:10;} .st70{fill:none;stroke:#6F6F6F;stroke-width:3;stroke-miterlimit:10;}</style>

 <g>
  <title>background</title>
  <rect fill="none" id="canvas_background" height="444" width="674" y="-1" x="-1"/>
 </g>
 <g>
  <title>Layer 1</title>
  <g id="git_x5F_branch_x5F_6">
   <path id="svg_1" d="m274.5,177.9l96.2,0l0,50l-96.2,0l0,-50z" class="st23"/>
   <path id="svg_2" d="m309.2,208.9l0,-8.3l-3.6,8.3l-1.3,0l-3.6,-8.3l0,8.3l-1.5,0l0,-10.6l2,0l3.7,8.7l3.8,-8.7l2,0l0,10.6l-1.5,0zm6.4,-4.2l1.9,-0.3c0.4,-0.1 0.6,-0.3 0.6,-0.5c0,-0.7 -0.5,-1.3 -1.6,-1.3c-1,0 -1.5,0.6 -1.6,1.5l-1.4,-0.3c0.2,-1.4 1.4,-2.3 3,-2.3c2.2,0 3,1.2 3,2.6l0,3.6c0,0.6 0.1,1 0.1,1.2l-1.4,0c0,-0.2 -0.1,-0.5 -0.1,-1c-0.3,0.5 -1,1.2 -2.3,1.2c-1.5,0 -2.4,-1 -2.4,-2.2c0,-1.3 1,-2 2.2,-2.2zm2.5,1.1l0,-0.3l-2.2,0.3c-0.6,0.1 -1,0.4 -1,1.1c0,0.5 0.4,1 1.2,1c1.1,0 2,-0.5 2,-2.1zm5,0.7c0.1,0.8 0.7,1.3 1.7,1.3c0.8,0 1.2,-0.5 1.2,-1s-0.3,-0.8 -0.9,-0.9l-1.2,-0.3c-1.1,-0.2 -1.8,-1 -1.8,-2c0,-1.2 1.2,-2.3 2.6,-2.3c2,0 2.6,1.3 2.7,1.9l-1.2,0.5c-0.1,-0.4 -0.4,-1.2 -1.5,-1.2c-0.7,0 -1.2,0.5 -1.2,1c0,0.4 0.3,0.8 0.8,0.9l1.2,0.3c1.3,0.3 2,1.1 2,2.1s-0.9,2.2 -2.6,2.2c-2,0 -2.8,-1.3 -2.9,-2.1l1.1,-0.4zm8.8,-4.8l1.6,0l0,1.3l-1.6,0l0,3.8c0,0.7 0.3,1 1,1c0.2,0 0.4,0 0.6,-0.1l0,1.2c-0.1,0 -0.5,0.1 -1,0.1c-1.2,0 -2,-0.8 -2,-2.1l0,-4l-1.4,0l0,-1.3l0.4,0c0.8,0 1.1,-0.5 1.1,-1.1l0,-1.2l1.3,0l0,2.4zm10.4,5.1c-0.4,1.3 -1.6,2.3 -3.2,2.3c-1.9,0 -3.6,-1.4 -3.6,-3.9c0,-2.3 1.6,-3.8 3.4,-3.8c2.2,0 3.5,1.5 3.5,3.8l0,0.4l-5.4,0c0,1.3 1,2.2 2.2,2.2c1.2,0 1.8,-0.6 2,-1.5l1.1,0.5zm-1.4,-2.3c0,-1 -0.7,-1.8 -2,-1.8c-1.2,0 -1.9,0.9 -2,1.8l4,0zm8,-1.4l-0.6,0c-1.2,0 -2,0.6 -2,2.2l0,3.6l-1.4,0l0,-7.2l1.4,0l0,1.3c0.5,-1.1 1.4,-1.4 2.2,-1.4l0.5,0l0,1.5l-0.1,0z" class="st10"/>
   <path id="svg_3" d="m322.6,273.5l0,-23.5m10.8,14.8l-10.8,10.9l-10.9,-10.9m305.2,-28.4l-83,0l41.2,0m-154.9,41c0,22.6 -18.4,41 -41,41l-202.2,0m243.2,-41c0,-22.6 18.4,-41 41,-41l30.7,0" class="st11"/>
   <circle id="svg_4" r="21" cy="318.4" cx="322.6" class="st29"/>
   <circle id="svg_5" r="21" cy="236.4" cx="512.9" class="st4"/>
   <circle id="svg_6" r="21" cy="236.4" cx="596.1" class="st4"/>
   <circle id="svg_7" r="21" cy="318.4" cx="239.3" class="st4"/>
   <circle id="svg_8" r="21" cy="318.4" cx="156.1" class="st4"/>
   <path id="svg_9" d="m525.3,100.5l141.6,0l0,50l-141.6,0l0,-50z" class="st12"/>
   <path id="svg_10" d="m553.1,123.8c-0.1,-0.8 -0.8,-1.8 -2.2,-1.8c-1.2,0 -2.1,0.8 -2.1,1.8c0,0.8 0.5,1.3 1.4,1.5l1.6,0.3c1.8,0.4 2.8,1.5 2.8,3c0,1.6 -1.4,3.1 -3.7,3.1c-2.6,0 -3.8,-1.6 -4,-3.2l1.4,-0.4c0.1,1.2 0.9,2.3 2.5,2.3c1.5,0 2.2,-0.8 2.2,-1.7c0,-0.8 -0.5,-1.4 -1.6,-1.7l-1.5,-0.3c-1.5,-0.3 -2.6,-1.3 -2.6,-2.9c0,-1.7 1.5,-3.2 3.5,-3.2c2.4,0 3.4,1.5 3.6,2.6l-1.3,0.6zm10.7,4.1c0,2.2 -1.5,3.8 -3.7,3.8s-3.7,-1.6 -3.7,-3.8c0,-2.2 1.5,-3.8 3.7,-3.8s3.7,1.6 3.7,3.8zm-1.4,0c0,-1.7 -1.1,-2.6 -2.2,-2.6s-2.2,0.9 -2.2,2.6c0,1.7 1.1,2.6 2.2,2.6s2.2,-0.9 2.2,-2.6zm3.9,3.6l0,-7.2l1.3,0l0,1c0.5,-0.8 1.4,-1.2 2.2,-1.2c0.9,0 1.8,0.4 2.2,1.4c0.6,-1 1.5,-1.4 2.4,-1.4c1.3,0 2.5,0.9 2.5,2.7l0,4.7l-1.4,0l0,-4.5c0,-0.9 -0.5,-1.6 -1.5,-1.6s-1.7,0.8 -1.7,1.8l0,4.4l-1.3,0l0,-4.6c0,-0.9 -0.4,-1.6 -1.5,-1.6c-1,0 -1.7,0.8 -1.7,1.8l0,4.3l-1.5,0zm19.9,-2c-0.4,1.3 -1.6,2.3 -3.2,2.3c-1.9,0 -3.6,-1.4 -3.6,-3.9c0,-2.3 1.6,-3.8 3.4,-3.8c2.2,0 3.5,1.5 3.5,3.8l0,0.5l-5.4,0c0,1.3 1,2.2 2.2,2.2c1.2,0 1.8,-0.6 2,-1.5l1.1,0.4zm-1.4,-2.3c0,-1 -0.7,-1.8 -2,-1.8c-1.2,0 -1.9,0.9 -2,1.8l4,0zm8.7,4.3l0,-10.6l6.5,0l0,1.4l-5,0l0,3.4l4.5,0l0,1.4l-4.5,0l0,4.5l-1.5,0l0,-0.1zm14.6,-2c-0.4,1.3 -1.6,2.3 -3.2,2.3c-1.9,0 -3.6,-1.4 -3.6,-3.9c0,-2.3 1.6,-3.8 3.4,-3.8c2.2,0 3.5,1.5 3.5,3.8l0,0.5l-5.4,0c0,1.3 1,2.2 2.2,2.2c1.2,0 1.8,-0.6 2,-1.5l1.1,0.4zm-1.4,-2.3c0,-1 -0.7,-1.8 -2,-1.8c-1.2,0 -1.9,0.9 -2,1.8l4,0zm5.7,0.2l1.9,-0.3c0.4,-0.1 0.6,-0.3 0.6,-0.5c0,-0.7 -0.5,-1.3 -1.6,-1.3c-1,0 -1.5,0.6 -1.6,1.5l-1.4,-0.3c0.2,-1.4 1.4,-2.3 3,-2.3c2.2,0 3,1.2 3,2.6l0,3.6c0,0.6 0.1,1 0.1,1.2l-1.4,0c0,-0.2 -0.1,-0.5 -0.1,-1c-0.3,0.5 -1,1.2 -2.3,1.2c-1.5,0 -2.4,-1 -2.4,-2.2c0.1,-1.3 1,-2 2.2,-2.2zm2.5,1.1l0,-0.3l-2.2,0.3c-0.6,0.1 -1.1,0.4 -1.1,1.1c0,0.5 0.4,1 1.2,1c1.2,0 2.1,-0.6 2.1,-2.1zm6.3,-4.2l1.6,0l0,1.3l-1.6,0l0,3.8c0,0.7 0.3,1 1,1c0.2,0 0.4,0 0.6,-0.1l0,1.2c-0.1,0 -0.5,0.1 -1,0.1c-1.2,0 -2,-0.8 -2,-2.1l0,-4l-1.4,0l0,-1.3l0.4,0c0.8,0 1.1,-0.5 1.1,-1.1l0,-1.1l1.3,0l0,2.3zm6.8,7.5c-1.7,0 -2.7,-1.3 -2.7,-2.9l0,-4.5l1.4,0l0,4.3c0,1 0.4,1.9 1.6,1.9c1.1,0 1.7,-0.8 1.7,-1.8l0,-4.3l1.4,0l0,5.9c0,0.6 0,1.1 0.1,1.3l-1.4,0c0,-0.2 -0.1,-0.6 -0.1,-0.9c-0.3,0.6 -1.2,1 -2,1zm10.6,-6l-0.6,0c-1.2,0 -2,0.6 -2,2.2l0,3.6l-1.4,0l0,-7.2l1.4,0l0,1.3c0.5,-1.1 1.4,-1.4 2.2,-1.4l0.5,0l0,1.5l-0.1,0zm8.5,3.7c-0.4,1.3 -1.6,2.3 -3.2,2.3c-1.9,0 -3.6,-1.4 -3.6,-3.9c0,-2.3 1.6,-3.8 3.4,-3.8c2.2,0 3.5,1.5 3.5,3.8l0,0.5l-5.4,0c0,1.3 1,2.2 2.2,2.2c1.2,0 1.8,-0.6 2,-1.5l1.1,0.4zm-1.4,-2.3c0,-1 -0.7,-1.8 -2,-1.8c-1.2,0 -1.9,0.9 -2,1.8l4,0z" class="st10"/>
   <path id="svg_11" d="m596.1,193.7l0,-23.5m10.9,14.8l-10.9,10.9l-10.9,-10.9" class="st11"/>
   <path id="svg_12" d="m130.3,442.1l541.4,0" class="st24"/>
   <path id="svg_13" d="m347.9,18.1c2,0 3.2,1.2 3.2,2.9c0,1.1 -0.7,2 -1.6,2.3c1.2,0.3 1.9,1.4 1.9,2.6c0,1.7 -1.3,2.9 -3.3,2.9l-3.7,0l0,-10.7l3.5,0zm-0.1,4.7c1.2,0 1.9,-0.7 1.9,-1.7s-0.7,-1.7 -1.9,-1.7l-1.8,0l0,3.4l1.8,0zm0.2,4.7c1.2,0 2,-0.7 2,-1.7s-0.6,-1.7 -1.9,-1.7l-2.1,0l0,3.4l2,0zm12.4,-0.8c-0.4,1.3 -1.6,2.3 -3.2,2.3c-1.9,0 -3.6,-1.4 -3.6,-3.9c0,-2.3 1.6,-3.8 3.4,-3.8c2.2,0 3.5,1.5 3.5,3.8l0,0.4l-5.5,0c0,1.3 1,2.2 2.2,2.2c1.2,0 1.8,-0.6 2,-1.5l1.2,0.5zm-1.4,-2.3c0,-1 -0.7,-1.8 -2,-1.8c-1.2,0 -1.9,0.9 -2,1.8l4,0zm5.9,-1.6l0,5.9l-1.5,0l0,-5.9l-1.3,0l0,-1.3l1.3,0l0,-1.2c0,-1.6 1.1,-2.5 2.4,-2.5c0.5,0 0.8,0.1 0.8,0.2l0,1.3c-0.1,0 -0.3,-0.1 -0.6,-0.1c-0.5,0 -1.1,0.2 -1.1,1.2l0,1.1l1.7,0l0,1.3l-1.7,0zm10.5,2.3c0,2.2 -1.5,3.8 -3.7,3.8s-3.7,-1.6 -3.7,-3.8c0,-2.2 1.5,-3.8 3.7,-3.8s3.7,1.6 3.7,3.8zm-1.4,0c0,-1.7 -1.1,-2.6 -2.2,-2.6s-2.2,0.9 -2.2,2.6c0,1.7 1.1,2.6 2.2,2.6s2.2,-0.9 2.2,-2.6zm8,-2.1l-0.6,0c-1.2,0 -2,0.6 -2,2.2l0,3.6l-1.4,0l0,-7.2l1.4,0l0,1.3c0.5,-1.1 1.4,-1.4 2.2,-1.4l0.5,0l0,1.5l-0.1,0zm8.4,3.7c-0.4,1.3 -1.6,2.3 -3.2,2.3c-1.9,0 -3.6,-1.4 -3.6,-3.9c0,-2.3 1.6,-3.8 3.4,-3.8c2.2,0 3.5,1.5 3.5,3.8l0,0.4l-5.5,0c0,1.3 1,2.2 2.2,2.2c1.2,0 1.8,-0.6 2,-1.5l1.2,0.5zm-1.4,-2.3c0,-1 -0.7,-1.8 -2,-1.8c-1.2,0 -1.9,0.9 -2,1.8l4,0zm18.7,4.3l0,-8.3l-3.6,8.3l-1.3,0l-3.6,-8.3l0,8.3l-1.5,0l0,-10.6l2,0l3.7,8.7l3.8,-8.7l2,0l0,10.6l-1.5,0zm11.1,-2c-0.4,1.3 -1.6,2.3 -3.2,2.3c-1.9,0 -3.6,-1.4 -3.6,-3.9c0,-2.3 1.6,-3.8 3.4,-3.8c2.2,0 3.5,1.5 3.5,3.8l0,0.4l-5.4,0c0,1.3 1,2.2 2.2,2.2c1.2,0 1.8,-0.6 2,-1.5l1.1,0.5zm-1.5,-2.3c0,-1 -0.7,-1.8 -2,-1.8c-1.2,0 -1.9,0.9 -2,1.8l4,0zm8.1,-1.4l-0.6,0c-1.2,0 -2,0.6 -2,2.2l0,3.6l-1.4,0l0,-7.2l1.4,0l0,1.3c0.5,-1.1 1.4,-1.4 2.2,-1.4l0.5,0l0,1.5l-0.1,0zm3,5.8c0.1,1 0.9,1.8 2,1.8c1.5,0 2.2,-0.8 2.2,-2.3l0,-1c-0.3,0.7 -1.1,1.2 -2.2,1.2c-1.9,0 -3.3,-1.5 -3.3,-3.5c0,-1.9 1.3,-3.5 3.3,-3.5c1.1,0 1.9,0.4 2.2,1.1l0,-1l1.4,0l0,6.7c0,1.8 -0.9,3.6 -3.6,3.6c-1.8,0 -3.1,-1.1 -3.3,-2.7l1.3,-0.4zm4.2,-3.9c0,-1.4 -0.8,-2.3 -2.1,-2.3c-1.2,0 -2.1,0.9 -2.1,2.3s0.8,2.3 2.1,2.3s2.1,-0.9 2.1,-2.3zm5,-7.1c0.6,0 1,0.4 1,1s-0.4,1 -1,1s-1,-0.5 -1,-1c0,-0.6 0.5,-1 1,-1zm-0.7,10.9l0,-7.2l1.4,0l0,7.2l-1.4,0zm6,0l-1.4,0l0,-7.2l1.4,0l0,1c0.5,-0.9 1.4,-1.2 2.2,-1.2c1.7,0 2.6,1.2 2.6,2.9l0,4.6l-1.4,0l0,-4.3c0,-1 -0.4,-1.8 -1.7,-1.8c-1.1,0 -1.7,0.9 -1.7,2l0,4zm8.6,0.1c0.1,1 0.9,1.8 2,1.8c1.5,0 2.2,-0.8 2.2,-2.3l0,-1c-0.3,0.7 -1.1,1.2 -2.2,1.2c-1.9,0 -3.3,-1.5 -3.3,-3.5c0,-1.9 1.3,-3.5 3.3,-3.5c1.1,0 1.9,0.4 2.2,1.1l0,-1l1.4,0l0,6.7c0,1.8 -0.9,3.6 -3.6,3.6c-1.8,0 -3.1,-1.1 -3.3,-2.7l1.3,-0.4zm4.2,-3.9c0,-1.4 -0.8,-2.3 -2.1,-2.3c-1.2,0 -2.1,0.9 -2.1,2.3s0.8,2.3 2.1,2.3s2.1,-0.9 2.1,-2.3z" class="st25"/>
  </g>
 </g>
</svg>